<?xml version="1.0" encoding="iso-8859-1"?>
<!-- Generator: Adobe Illustrator 18.0.0, SVG Export Plug-In . SVG Version: 6.00 Build 0)  -->
<!DOCTYPE svg PUBLIC "-//W3C//DTD SVG 1.1//EN" "http://www.w3.org/Graphics/SVG/1.1/DTD/svg11.dtd">
<svg version="1.1" id="_x31_" xmlns="http://www.w3.org/2000/svg" xmlns:xlink="http://www.w3.org/1999/xlink" x="0px" y="0px"
	 viewBox="0 0 512 512" style="enable-background:new 0 0 512 512;" xml:space="preserve">
<g>
	<rect style="fill:#EBE5D3;" width="512" height="512"/>
	<path style="opacity:0.1;fill:#231815;" d="M512,243.814V512H175.155l-84.019-84.019c1.126-12.851,3.686-43.571,5.12-58.624
		c1.843-19.354,14.797-33.894,33.28-40.346c9.165-3.226,33.126-12.032,54.784-20.07l0.205-0.051l21.453-9.062l-0.512-2.816
		l2.611-1.28c-7.168-3.584-14.643-7.629-22.221-12.134c-41.83-24.832-58.88-57.344-34.099-145.613
		c23.603-84.07,73.882-101.99,109.363-103.526c0.512,0,1.024-0.051,1.485-0.051v-0.051h3.789c18.432,0,34.611,4.608,48.179,12.032
		l41.37,41.37l89.958,89.958L512,243.814z"/>
	<g>
		<g>
			<g>
				<path style="fill:#94796E;" d="M442.061,433.869H90.675c0,0,0.205-2.202,0.461-5.888c1.126-12.851,3.686-43.571,5.12-58.624
					c1.843-19.354,14.797-33.894,33.28-40.346c9.165-3.226,33.126-12.032,54.784-20.07l0.205-0.051
					c7.782-2.867,15.258-5.632,21.606-8.038c1.178-0.41,2.253-0.819,3.328-1.229c1.331-0.461,2.611-0.973,3.789-1.382
					c3.123-1.178,5.786-2.15,7.834-2.918c1.075-0.41,1.946-0.768,2.662-1.024h0.051c1.229-0.461,1.894-0.717,1.894-0.717
					l35.43,1.024l5.274,0.154l40.704-1.178c0,0,0.666,0.256,1.894,0.717h0.051c0.717,0.256,1.587,0.614,2.662,1.024
					c1.587,0.563,3.533,1.28,5.734,2.099c2.048,0.819,4.403,1.638,6.912,2.611c0.768,0.256,1.485,0.563,2.304,0.819
					c8.653,3.226,19.302,7.168,30.003,11.11v0.051c2.662,0.973,5.376,1.997,8.038,2.97c2.099,0.768,4.198,1.536,6.246,2.304
					c13.875,5.12,26.266,9.626,32.307,11.725c18.483,6.451,31.437,20.992,33.28,40.346
					C438.374,388.71,442.061,433.869,442.061,433.869z"/>
				<polygon style="fill:#9D8477;" points="265.165,319.232 265.165,433.152 209.408,433.152 209.408,385.843 161.382,395.11 
					178.432,311.45 184.32,308.941 184.525,308.89 205.978,299.827 207.821,299.059 209.459,299.622 221.082,303.718 
					261.12,317.798 262.605,318.31 263.987,318.822 				"/>
				<polygon style="fill:#9D8477;" points="327.125,299.07 356.56,311.46 373.6,395.12 325.575,385.82 325.575,433.165 
					269.805,433.165 269.805,319.21 				"/>
				<rect x="245.02" y="351.74" style="fill:#D2171A;" width="41.31" height="81.425"/>
			</g>
			<path style="fill:#BF9862;" d="M343.194,283.597c-3.482,2.048-6.912,3.994-10.342,5.837c-1.69,0.922-3.379,1.843-5.069,2.714
				c-1.638,0.922-3.328,1.741-4.966,2.611c-1.843,0.922-3.635,1.843-5.376,2.662c-1.946,0.973-3.84,1.894-5.734,2.765
				c-17.459,8.192-32.307,13.568-40.909,16.486c-1.741,0.563-3.174,1.024-4.403,1.382v1.178l-0.102-0.051
				c-0.256-0.051-0.87-0.256-1.792-0.512c-0.205,0.051-0.358,0.102-0.512,0.154c-0.922,0.256-1.382,0.41-1.382,0.41v-1.178
				c-0.461-0.154-0.973-0.307-1.485-0.461c-7.424-2.406-22.118-7.475-40.038-15.667c-2.56-1.126-5.171-2.355-7.834-3.686
				c-1.69-0.819-3.43-1.638-5.171-2.509c-7.168-3.584-14.643-7.629-22.221-12.134c-41.83-24.832-58.88-57.344-34.099-145.613
				c23.603-84.07,73.882-101.99,109.363-103.526c0.512,0,1.024-0.051,1.485-0.051v-0.051h3.789c18.432,0,34.611,4.608,48.179,12.032
				c14.387,7.782,25.805,18.739,33.946,30.566c2.56,3.328,5.018,6.912,7.424,10.803c8.294,13.312,15.616,29.85,21.35,50.227
				C402.074,226.253,385.024,258.765,343.194,283.597z"/>
			<rect x="221.085" y="200.7" style="fill:#F0DEB4;" width="90.615" height="125.475"/>
			<path style="fill:#F8E8BC;" d="M297.315,132.78c-1.93,17.29,21.275,41.465,41.585,41.625c0,0,0,12.285,0,37.8
				c0,25.51-26.86,63.1-72.51,63.1c-45.65,0-72.505-37.59-72.505-63.1c0-25.515,0-31.185,0-31.185
				C252.83,181.02,250.895,132.78,297.315,132.78z"/>
			<rect x="245.735" y="320.755" style="fill:#D2171A;" width="41.31" height="28.92"/>
			<rect x="245.735" y="346.575" style="fill:#B31E24;" width="41.31" height="9.295"/>
			<g>
				<polygon style="fill:#F1F2F1;" points="266.394,319.232 265.165,320.41 264.806,320.768 261.12,324.352 259.174,326.195 
					245.76,339.2 217.856,366.182 206.131,300.851 205.978,299.827 205.466,297.011 208.077,295.731 217.856,290.816 
					221.082,292.71 223.744,294.298 223.795,294.298 261.12,316.16 266.291,319.181 				"/>
				<polygon style="fill:#F1F2F1;" points="266.39,319.21 314.935,290.81 327.325,297 314.935,366.195 				"/>
			</g>
		</g>
		<path style="opacity:0.1;fill:#3E3A39;" d="M442.061,433.869H261.12V34.458c0.512,0,1.024-0.051,1.485-0.051v-0.051h3.789
			c18.432,0,34.611,4.608,48.179,12.032c14.387,7.782,25.805,18.739,33.946,30.566c2.56,3.328,5.018,6.912,7.424,10.803
			c8.294,13.312,15.616,29.85,21.35,50.227c24.781,88.269,7.731,120.781-34.099,145.613c-3.482,2.048-6.912,3.994-10.342,5.837
			c-1.69,0.922-3.379,1.843-5.069,2.714c-1.638,0.922-3.328,1.741-4.966,2.611l4.506,2.253l-0.358,2.099l0.154-0.051l29.44,12.39
			l0.102,0.512v0.051c2.662,0.973,5.376,1.997,8.038,2.97c2.099,0.768,4.198,1.536,6.246,2.304
			c13.875,5.12,26.266,9.626,32.307,11.725c18.483,6.451,31.437,20.992,33.28,40.346
			C438.374,388.71,442.061,433.869,442.061,433.869z"/>
	</g>
</g>
</svg>
