<?xml version="1.0" encoding="iso-8859-1"?>
<!-- Generator: Adobe Illustrator 18.0.0, SVG Export Plug-In . SVG Version: 6.00 Build 0)  -->
<!DOCTYPE svg PUBLIC "-//W3C//DTD SVG 1.1//EN" "http://www.w3.org/Graphics/SVG/1.1/DTD/svg11.dtd">
<svg version="1.1" id="_x31_" xmlns="http://www.w3.org/2000/svg" xmlns:xlink="http://www.w3.org/1999/xlink" x="0px" y="0px"
	 viewBox="0 0 512 512" style="enable-background:new 0 0 512 512;" xml:space="preserve">
<g>
	<rect style="fill:#99D4D9;" width="512" height="512"/>
	<path style="opacity:0.1;fill:#231815;" d="M512,274.79V512H147.814l-50.074-50.074l-13.722-13.67
		c1.229-14.899,3.226-38.298,4.454-50.842c1.843-19.354,14.746-33.843,33.28-40.294c9.216-3.226,33.28-12.083,54.989-20.173
		l0.563-0.205l20.89-8.806l-0.512-2.867l12.39-6.195l3.226,1.894v-14.95c-32.922-16.486-51.405-49.254-51.405-73.677v-35.174
		c0-4.864,0-6.4,0-6.4v-43.981c0-7.987,1.946-16.845,5.786-25.702l50.125-50.125c11.93-5.222,25.6-8.346,40.806-8.346
		c8.346,0,16.23,0.922,23.603,2.714c13.722,3.174,25.754,9.062,35.84,16.486c1.178,0.87,2.304,1.741,3.379,2.662
		c0.102,0.051,0.205,0.154,0.307,0.205c0.051,0.051,0.102,0.102,0.102,0.102l13.978,14.029c0.051,0,0.051,0,0.102,0.051
		c0.102,0.051,0.154,0.154,0.205,0.256L512,274.79z"/>
	<g>
		<g>
			<g>
				<path style="fill:#727171;" d="M434.278,461.926H82.893c0,0,0.461-5.581,1.126-13.67c1.229-14.899,3.226-38.298,4.454-50.842
					c1.843-19.354,14.746-33.843,33.28-40.294c9.216-3.226,33.28-12.083,54.989-20.173l0.563-0.205
					c7.578-2.816,14.848-5.478,21.043-7.834c1.126-0.41,2.202-0.819,3.277-1.178c4.813-1.792,8.806-3.328,11.674-4.352
					c1.075-0.41,1.946-0.768,2.662-1.024h0.051c1.229-0.461,1.894-0.717,1.894-0.717l40.704,1.178l2.509-0.051l38.144-1.126
					c0,0,0.666,0.256,1.946,0.717c0.717,0.256,1.638,0.614,2.714,1.024c3.072,1.126,7.424,2.765,12.698,4.762
					c0.717,0.256,1.434,0.512,2.202,0.819c8.653,3.174,19.354,7.168,30.054,11.11v0.051c2.406,0.87,4.813,1.741,7.219,2.611
					c3.533,1.331,7.066,2.611,10.496,3.891c1.126,0.41,2.253,0.819,3.328,1.229c2.202,0.819,4.301,1.587,6.349,2.355
					c5.171,1.894,9.83,3.584,13.517,4.915c0.768,0.256,1.485,0.512,2.15,0.768c1.331,0.461,2.509,0.87,3.533,1.229
					c18.483,6.451,31.437,20.941,33.28,40.294C430.592,416.768,434.278,461.926,434.278,461.926z"/>
				<polygon style="fill:#838384;" points="257.382,347.29 257.382,461.261 201.574,461.261 201.574,413.901 153.549,423.219 
					170.598,339.558 176.742,336.947 177.306,336.742 198.195,327.936 200.038,327.168 201.626,327.731 213.299,331.827 				"/>
				<polygon style="fill:#838384;" points="319.325,327.15 348.76,339.545 365.8,423.2 317.78,413.9 317.78,461.245 
					262.005,461.245 262.005,347.295 				"/>
			</g>
			<path style="fill:#BF9862;" d="M355.277,146.586v35.174c0,4.813,0,6.4,0,6.4c-46.234,0-64.358,22.221-84.07,40.602
				c-3.277,3.021-6.554,5.939-10.086,8.653c-11.213,8.704-24.32,15.053-43.776,15.053c0.666-5.939-0.87-12.493-4.045-18.944
				c-9.062-18.586-31.283-36.403-51.405-36.557c0-4.864,0-6.4,0-6.4v-43.981c0-7.987,1.946-16.845,5.786-25.702
				c8.346-19.558,25.549-39.322,50.125-50.125c11.93-5.222,25.6-8.346,40.806-8.346c8.346,0,16.23,0.922,23.603,2.714
				c13.722,3.174,25.754,9.062,35.84,16.486c1.178,0.87,2.304,1.741,3.379,2.662c0.102,0.051,0.205,0.154,0.307,0.205
				c0.051,0.051,0.102,0.102,0.102,0.102c0.922,0.717,1.792,1.485,2.611,2.253c0.819,0.666,1.587,1.382,2.355,2.099
				c0.922,0.819,1.741,1.638,2.56,2.509c1.075,1.075,2.099,2.099,3.072,3.226c1.075,1.178,2.099,2.355,3.123,3.584
				c0.102,0.102,0.205,0.205,0.256,0.358c0.051,0,0.051,0,0.102,0.051c0.102,0.051,0.154,0.154,0.205,0.256
				c2.714,3.277,5.12,6.656,7.219,10.138c0.461,0.717,0.87,1.434,1.28,2.15c1.382,2.355,2.662,4.762,3.738,7.168
				c0.358,0.666,0.614,1.382,0.922,2.048c0.102,0.205,0.205,0.461,0.307,0.666c0.717,1.69,1.382,3.379,1.997,5.069
				c0.41,1.28,0.819,2.509,1.178,3.84c0.41,1.434,0.768,2.867,1.075,4.301c0.307,1.382,0.563,2.816,0.768,4.198
				c0.205,1.075,0.307,2.202,0.41,3.277C355.226,143.411,355.277,144.998,355.277,146.586z"/>
			<rect x="213.299" y="228.762" style="fill:#F0DEB4;" width="90.624" height="125.491"/>
			<path style="fill:#F8E8BC;" d="M355.277,181.76c0,4.813,0,6.4,0,6.4v43.981c0,1.178-0.051,2.355-0.154,3.533
				c-0.051,0.973-0.154,1.997-0.256,3.021c-0.102,0.973-0.256,1.946-0.461,2.918c-0.102,0.614-0.205,1.178-0.307,1.792
				c-0.307,1.382-0.614,2.765-0.973,4.147c-0.307,1.126-0.666,2.253-1.024,3.379c-0.614,1.894-1.331,3.84-2.099,5.786
				c-0.41,0.973-0.819,1.946-1.28,2.918c-1.075,2.406-2.304,4.864-3.686,7.27c-0.666,1.126-1.331,2.253-2.048,3.379
				c-0.563,0.87-1.126,1.792-1.741,2.662c-2.714,4.045-5.786,7.987-9.318,11.725c-0.717,0.768-1.434,1.536-2.202,2.304
				c-1.024,1.126-2.099,2.15-3.174,3.072c-0.87,0.819-1.741,1.587-2.611,2.355c-0.512,0.461-0.973,0.87-1.485,1.229
				c-0.819,0.666-1.638,1.331-2.458,1.997c-1.331,1.075-2.714,2.099-4.096,3.021c-1.075,0.768-2.15,1.485-3.277,2.15
				c-0.307,0.256-0.563,0.461-0.87,0.563c-1.178,0.768-2.355,1.485-3.584,2.099c-0.41,0.307-0.819,0.563-1.229,0.717
				c-0.973,0.563-1.997,1.126-3.021,1.587v0.051c-12.288,6.195-26.624,10.086-42.803,10.445c-0.819,0.051-1.638,0.051-2.509,0.051
				c-17.203,0-32.358-3.994-45.312-10.496c-32.922-16.486-51.405-49.254-51.405-73.677v-35.174c0-4.864,0-6.4,0-6.4
				c57.498,0,71.578-34.406,99.226-52.89c10.138-6.758,22.118-11.418,38.707-11.418C297.267,149.299,328.192,181.555,355.277,181.76
				z"/>
			<rect x="237.94" y="348.835" style="fill:#D2171A;" width="41.315" height="28.926"/>
			<rect x="237.94" y="374.66" style="fill:#B31E24;" width="41.315" height="9.29"/>
			<g>
				<polygon style="fill:#F1F2F1;" points="258.611,347.29 257.382,348.467 257.024,348.826 251.443,354.253 237.926,367.309 
					210.074,394.291 198.349,328.909 198.195,327.936 197.683,325.069 210.074,318.874 213.299,320.768 215.962,322.355 
					216.013,322.355 				"/>
				<polygon style="fill:#F1F2F1;" points="258.595,347.295 307.135,318.89 319.525,325.085 307.135,394.28 				"/>
			</g>
			<rect x="237.94" y="380.465" style="fill:#D2171A;" width="41.315" height="81.425"/>
		</g>
		<path style="opacity:0.1;fill:#3E3A39;" d="M434.278,461.926H261.12V62.515c7.424,0.154,14.438,1.075,21.094,2.611
			c13.722,3.174,25.754,9.062,35.84,16.486c1.178,0.87,2.304,1.741,3.379,2.662c0.102,0.051,0.205,0.154,0.307,0.205
			c0.051,0.051,0.102,0.102,0.102,0.102c0.922,0.717,1.792,1.485,2.611,2.253c0.819,0.666,1.587,1.382,2.355,2.099
			c0.922,0.819,1.741,1.638,2.56,2.509c1.075,1.024,2.15,2.099,3.072,3.226c1.075,1.178,2.099,2.355,3.123,3.584
			c0.154,0.102,0.256,0.256,0.358,0.41c0.102,0.051,0.154,0.154,0.205,0.256c2.714,3.277,5.12,6.656,7.219,10.138
			c0.461,0.717,0.87,1.434,1.28,2.15c1.382,2.355,2.662,4.762,3.738,7.168c0.358,0.666,0.614,1.382,0.922,2.048
			c0.102,0.205,0.205,0.461,0.307,0.666c0.717,1.69,1.382,3.379,1.997,5.069c0.41,1.28,0.819,2.509,1.178,3.84
			c0.41,1.434,0.768,2.867,1.075,4.301c0.307,1.382,0.563,2.816,0.768,4.198c0.205,1.075,0.307,2.202,0.41,3.277
			c0.205,1.638,0.256,3.226,0.256,4.813v35.174c0,4.813,0,6.4,0,6.4v43.981c0,1.178-0.051,2.355-0.154,3.533
			c-0.051,0.973-0.154,1.997-0.256,3.021c-0.512,3.942-1.434,8.09-2.765,12.237c-0.205,0.717-0.461,1.382-0.717,2.099
			c-0.41,1.229-0.87,2.458-1.382,3.686c-0.41,0.973-0.819,1.946-1.28,2.918c-0.512,1.229-1.126,2.406-1.741,3.635
			c-0.614,1.229-1.28,2.458-1.946,3.635c-0.666,1.126-1.331,2.253-2.048,3.379c-0.512,0.87-1.075,1.69-1.638,2.509
			c0,0.051-0.051,0.102-0.102,0.154c-0.87,1.331-1.792,2.611-2.765,3.891c-1.229,1.638-2.509,3.277-3.84,4.813
			c-0.922,1.075-1.843,2.15-2.867,3.174c-0.666,0.717-1.331,1.434-2.048,2.15c-1.024,1.075-2.099,2.099-3.174,3.072
			c-0.717,0.666-1.485,1.331-2.202,1.997c-0.614,0.563-1.229,1.126-1.894,1.587c-0.819,0.666-1.638,1.331-2.458,1.997
			c-0.154,0.154-0.307,0.307-0.461,0.358c-0.922,0.768-1.894,1.485-2.918,2.15c-0.205,0.205-0.461,0.41-0.717,0.512
			c-1.075,0.768-2.15,1.485-3.277,2.15c-0.307,0.256-0.563,0.461-0.87,0.563c-1.28,0.819-2.56,1.587-3.84,2.253
			c-0.307,0.256-0.666,0.461-0.973,0.563c-0.666,0.41-1.28,0.768-1.946,1.024c-0.358,0.256-0.717,0.41-1.075,0.614v14.95
			l3.226-1.894l12.39,6.195l-0.41,2.15h0.051l0.154-0.051l29.44,12.39l0.102,0.512c1.229,0.461,2.406,0.87,3.584,1.331
			c11.981,4.454,23.757,8.755,32.461,11.981c0.87,0.307,1.741,0.614,2.56,0.922c3.226,1.126,5.939,2.099,7.987,2.816
			c18.483,6.451,31.437,20.941,33.28,40.294C430.592,416.768,434.278,461.926,434.278,461.926z"/>
	</g>
</g>
</svg>
